<?xml version="1.0" encoding="utf-8"?>
<!-- Generator: Adobe Illustrator 27.8.1, SVG Export Plug-In . SVG Version: 6.00 Build 0)  -->
<svg version="1.1" id="katman_1" xmlns="http://www.w3.org/2000/svg" xmlns:xlink="http://www.w3.org/1999/xlink" x="0px" y="0px"
	 viewBox="0 0 320 89.81" style="enable-background:new 0 0 320 89.81;" xml:space="preserve">
<style type="text/css">
	.st0{fill:#FFFFFF;}
</style>
<g>
	<path d="M104.2,85.91c0.34-9.86,0.74-19.52,0.97-29.18c0.1-4.42-0.59-8.37-4.21-11.89c-4.82-4.68-4.78-14.24-0.82-19.8
		c3.94-5.53,9.97-5.59,13.99-0.16c4.38,5.93,3.64,15.52-1.43,20.88c-1.25,1.32-2.74,3.13-2.79,4.75c-0.27,9.04-0.13,18.1-0.13,27.14
		c14.73,0.09,29.01-13.88,30.49-29.29c1.66-17.2-9.75-32.57-26.75-36.06c-16.55-3.4-32.98,6.59-38.15,23.11
		c-4.54,14.51,1.73,35.46,24.49,42.14c0,2.51,0,5.07,0,7.63c-14.97-1.25-35.59-17.2-33.91-43.85c1.39-21.99,21.57-39.27,44.58-37.69
		c22.32,1.53,40.15,22.43,37.88,44.39C146,71.39,125.89,88.66,104.2,85.91z"/>
	<path d="M193.76,85.86c0.44-8.04,0.98-15.89,1.24-23.74c0.11-3.35-0.3-6.73-0.67-10.07c-0.14-1.3-0.46-3-1.34-3.73
		c-3.25-2.67-2.62-6.18-2.63-9.6c-0.02-5.92,0-11.84,0-17.76c0.35-0.08,0.69-0.15,1.04-0.23c0.32,0.84,0.88,1.67,0.93,2.52
		c0.21,3.93,0.16,7.88,0.46,11.81c0.07,0.95,1.08,1.84,1.65,2.76c0.5-0.87,1.35-1.72,1.42-2.62c0.32-3.92,0.36-7.87,0.61-11.8
		c0.06-0.92,0.55-1.81,0.84-2.71c0.35,0.09,0.71,0.19,1.06,0.28c0.24,4.69,0.41,9.38,0.8,14.05c0.08,0.98,1.03,1.89,1.59,2.83
		c0.53-0.98,1.45-1.93,1.52-2.95c0.28-3.81,0.24-7.65,0.43-11.47c0.04-0.9,0.52-1.78,0.8-2.67c0.32,0.05,0.65,0.11,0.97,0.16
		c0.07,1.05,0.19,2.09,0.19,3.14c0.02,4.73,0.03,9.46,0,14.19c-0.03,3.63,0.62,7.3-2.68,10.27c-1.13,1.02-1.48,3.32-1.51,5.05
		c-0.15,8.03-0.07,16.06-0.07,24.09c15.31-0.37,28.82-14.06,30.31-29.84c1.58-16.75-10-31.98-27.06-35.55
		c-15.62-3.28-32.33,6.47-37.48,21.83c-3.15,9.39-2.32,18.42,2.49,27.04c4.81,8.6,12.3,13.8,21.62,16.31c0,2.81,0,5.35,0,7.91
		c-16.37-1.88-36.6-18.74-33.75-45.75c2.27-21.51,23.17-38.22,45.17-35.86c23.71,2.54,39.76,23.3,36.72,47.5
		C235.81,72.13,214.77,88.62,193.76,85.86z"/>
	<path d="M249.95,84.92c0-26.51,0-53.01,0-79.46c0.27-0.17,0.45-0.39,0.64-0.38c11.8,0.1,23.61,0,35.41,0.37
		c15.6,0.49,24.84,11,28.26,24.17c2.78,10.69,2.73,21.38-0.46,31.95c-4.7,15.56-13.88,22.65-31.39,23.55
		c-10.43,0.54-20.92,0.13-31.38,0.13C250.71,85.24,250.4,85.06,249.95,84.92z M260.34,75.8c7.91,0,15.45,0.28,22.96-0.07
		c9.4-0.45,16.22-5.01,19.35-14.15c3.64-10.62,3.9-21.44,0.49-32.13c-3-9.4-10.07-14.49-19.89-14.9c-4.83-0.2-9.67-0.21-14.5-0.28
		c-2.75-0.04-5.5-0.01-8.41-0.01C260.34,35.05,260.34,55.26,260.34,75.8z"/>
	<path d="M4.04,5.09c18.01,0,35.75,0,53.74,0c0,2.97,0,5.83,0,9.1c-14.33,0-28.69,0-43.28,0c0,8.53,0,16.67,0,25.18
		c12.5,0,24.82,0,37.33,0c0,3.23,0,6.1,0,9.32c-12.41,0-24.75,0-37.52,0c0,12.31,0,24.28,0,36.42c-3.65,0-6.85,0-10.27,0
		C4.04,58.46,4.04,31.96,4.04,5.09z"/>
	<path class="st0" d="M260.34,75.8c0-20.54,0-40.75,0-61.53c2.91,0,5.66-0.03,8.41,0.01c4.83,0.06,9.67,0.07,14.5,0.28
		c9.82,0.42,16.88,5.5,19.89,14.9c3.41,10.69,3.15,21.5-0.49,32.13c-3.13,9.14-9.95,13.7-19.35,14.15
		C275.78,76.09,268.24,75.8,260.34,75.8z"/>
</g>
</svg>
