<?xml version="1.0" encoding="utf-8"?>
<!-- Generator: Adobe Illustrator 27.8.1, SVG Export Plug-In . SVG Version: 6.00 Build 0)  -->
<svg version="1.1" id="katman_1" xmlns="http://www.w3.org/2000/svg" xmlns:xlink="http://www.w3.org/1999/xlink" x="0px" y="0px"
	 viewBox="0 0 320 89.8" style="enable-background:new 0 0 320 89.8;" xml:space="preserve">
<g>
	<path d="M104.2,85.9c0.3-9.9,0.7-19.5,1-29.2c0.1-4.4-0.6-8.4-4.2-11.9c-4.8-4.7-4.8-14.2-0.8-19.8c3.9-5.5,10-5.6,14-0.2
		c4.4,5.9,3.6,15.5-1.4,20.9c-1.2,1.3-2.7,3.1-2.8,4.8c-0.3,9-0.1,18.1-0.1,27.1c14.7,0.1,29-13.9,30.5-29.3
		c1.7-17.2-9.8-32.6-26.8-36.1c-16.6-3.4-33,6.6-38.2,23.1c-4.5,14.5,1.7,35.5,24.5,42.1c0,2.5,0,5.1,0,7.6
		c-15-1.2-35.6-17.2-33.9-43.8c1.4-22,21.6-39.3,44.6-37.7c22.3,1.5,40.1,22.4,37.9,44.4C146,71.4,125.9,88.7,104.2,85.9z"/>
	<path d="M193.8,85.9c0.4-8,1-15.9,1.2-23.7c0.1-3.3-0.3-6.7-0.7-10.1c-0.1-1.3-0.5-3-1.3-3.7c-3.2-2.7-2.6-6.2-2.6-9.6
		c0-5.9,0-11.8,0-17.8c0.4-0.1,0.7-0.1,1-0.2c0.3,0.8,0.9,1.7,0.9,2.5c0.2,3.9,0.2,7.9,0.5,11.8c0.1,1,1.1,1.8,1.6,2.8
		c0.5-0.9,1.4-1.7,1.4-2.6c0.3-3.9,0.4-7.9,0.6-11.8c0.1-0.9,0.6-1.8,0.8-2.7c0.4,0.1,0.7,0.2,1.1,0.3c0.2,4.7,0.4,9.4,0.8,14.1
		c0.1,1,1,1.9,1.6,2.8c0.5-1,1.4-1.9,1.5-3c0.3-3.8,0.2-7.6,0.4-11.5c0-0.9,0.5-1.8,0.8-2.7c0.3,0,0.6,0.1,1,0.2
		c0.1,1,0.2,2.1,0.2,3.1c0,4.7,0,9.5,0,14.2c0,3.6,0.6,7.3-2.7,10.3c-1.1,1-1.5,3.3-1.5,5c-0.1,8-0.1,16.1-0.1,24.1
		c15.3-0.4,28.8-14.1,30.3-29.8c1.6-16.8-10-32-27.1-35.5C188,9,171.3,18.7,166.2,34.1c-3.1,9.4-2.3,18.4,2.5,27
		c4.8,8.6,12.3,13.8,21.6,16.3c0,2.8,0,5.3,0,7.9c-16.4-1.9-36.6-18.7-33.8-45.8c2.3-21.5,23.2-38.2,45.2-35.9
		c23.7,2.5,39.8,23.3,36.7,47.5C235.8,72.1,214.8,88.6,193.8,85.9z"/>
	<path d="M249.9,84.9c0-26.5,0-53,0-79.5c0.3-0.2,0.4-0.4,0.6-0.4c11.8,0.1,23.6,0,35.4,0.4c15.6,0.5,24.8,11,28.3,24.2
		c2.8,10.7,2.7,21.4-0.5,32c-4.7,15.6-13.9,22.7-31.4,23.5c-10.4,0.5-20.9,0.1-31.4,0.1C250.7,85.2,250.4,85.1,249.9,84.9z
		 M260.3,75.8c7.9,0,15.5,0.3,23-0.1c9.4-0.4,16.2-5,19.4-14.2c3.6-10.6,3.9-21.4,0.5-32.1c-3-9.4-10.1-14.5-19.9-14.9
		c-4.8-0.2-9.7-0.2-14.5-0.3c-2.8,0-5.5,0-8.4,0C260.3,35,260.3,55.3,260.3,75.8z"/>
	<path d="M4,5.1c18,0,35.8,0,53.7,0c0,3,0,5.8,0,9.1c-14.3,0-28.7,0-43.3,0c0,8.5,0,16.7,0,25.2c12.5,0,24.8,0,37.3,0
		c0,3.2,0,6.1,0,9.3c-12.4,0-24.8,0-37.5,0c0,12.3,0,24.3,0,36.4c-3.6,0-6.8,0-10.3,0C4,58.5,4,32,4,5.1z"/>
</g>
</svg>
