<?xml version="1.0" encoding="utf-8"?>
<!-- Generator: Adobe Illustrator 22.0.0, SVG Export Plug-In . SVG Version: 6.00 Build 0)  -->
<svg version="1.1" id="Layer_1" xmlns="http://www.w3.org/2000/svg" xmlns:xlink="http://www.w3.org/1999/xlink" x="0px" y="0px"
	 viewBox="0 0 1042 1163.5" style="enable-background:new 0 0 1042 1163.5;" xml:space="preserve">
<style type="text/css">
	.st0{fill:#827F80;}
</style>
<g>
	<path class="st0" d="M154,1050.4c7.6,56.1,67.3,102.1,132.9,102.1h467.5c65.6,0,125.4-46,132.9-102.1l97.4-722.7H56.7L154,1050.4z"
		/>
	<path class="st0" d="M661.2,86.5c0.9-4.3,1.6-8.8,1.6-13.5v-3.3c0-34.1-27.9-61.9-61.9-61.9H461.5c-34,0-62,27.8-62,61.9V73
		c0,4.8,0.7,9.2,1.7,13.5H661.2z"/>
	<path class="st0" d="M934.9,141.8H106.3c-56.8,0.8-97.6,34.8-97.9,87.4v37.1h1024.3v-37.1C1032.5,176.6,991.7,142.6,934.9,141.8z"
		/>
</g>
</svg>
